# xmcd
#
# Track frame offsets: 
#        150
#        13604
#        25825
#        42672
#        55653
#        72324
#        84949
#        98772
#        113336
#        126710
#        140044
#        153027
#
# Disc length: 2203 seconds
#
# Revision: 2
# Processed by: cddbd v1.5.2PL0 Copyright (c) Steve Scherf et al.
# Submitted via: ExactAudioCopyFreeDBPlugin 1.0
#
DISCID=9808990c
DTITLE=Marvin Gaye - M.P.G._2016
DYEAR=1969
DGENRE=R&B
TTITLE0=2 Busy Thinking About My Baby
TTITLE1=This Magic Moment
TTITLE2=That's The Way Love Is
TTITLE3=The End Of Our Road
TTITLE4=Seek and You Shall Find
TTITLE5=Memories
TTITLE6=Only A Lonely Man Would Know
TTITLE7=It's A Bitter Pill To Swallow
TTITLE8=More Than A Heart Can Stand
TTITLE9=Try My True Love
TTITLE10=I Got To Get To California
TTITLE11=It Don't Take Much 2 Keep Me
EXTD=YEAR: 1969 ID3G: 42
EXTT0=
EXTT1=
EXTT2=
EXTT3=
EXTT4=
EXTT5=
EXTT6=
EXTT7=
EXTT8=
EXTT9=
EXTT10=
EXTT11=
PLAYORDER=
